<svg xmlns="http://www.w3.org/2000/svg" version="1.1" xmlns:xlink="http://www.w3.org/1999/xlink" xmlns:svgjs="http://svgjs.com/svgjs" x="0" y="0" viewBox="0 0 426.66667 426.66667" style="enable-background:new 0 0 512 512" xml:space="preserve"><g><path xmlns="http://www.w3.org/2000/svg" d="m128 128h-128v-128h128zm-106.667969-21.332031h85.335938v-85.335938h-85.335938zm0 0" fill="currentColor" data-original="#000000"/><path xmlns="http://www.w3.org/2000/svg" d="m277.332031 128h-128v-128h128zm-106.664062-21.332031h85.332031v-85.335938h-85.332031zm0 0" fill="currentColor" data-original="#000000"/><path xmlns="http://www.w3.org/2000/svg" d="m426.667969 128h-128v-128h128zm-106.667969-21.332031h85.332031v-85.335938h-85.332031zm0 0" fill="currentColor" data-original="#000000"/><path xmlns="http://www.w3.org/2000/svg" d="m128 277.332031h-128v-128h128zm-106.667969-21.332031h85.335938v-85.332031h-85.335938zm0 0" fill="currentColor" data-original="#000000"/><path xmlns="http://www.w3.org/2000/svg" d="m277.332031 277.332031h-128v-128h128zm-106.664062-21.332031h85.332031v-85.332031h-85.332031zm0 0" fill="currentColor" data-original="#000000"/><path xmlns="http://www.w3.org/2000/svg" d="m426.667969 277.332031h-128v-128h128zm-106.667969-21.332031h85.332031v-85.332031h-85.332031zm0 0" fill="currentColor" data-original="#000000"/><path xmlns="http://www.w3.org/2000/svg" d="m128 426.667969h-128v-128h128zm-106.667969-21.335938h85.335938v-85.332031h-85.335938zm0 0" fill="currentColor" data-original="#000000"/><path xmlns="http://www.w3.org/2000/svg" d="m277.332031 426.667969h-128v-128h128zm-106.664062-21.335938h85.332031v-85.332031h-85.332031zm0 0" fill="currentColor" data-original="#000000"/><path xmlns="http://www.w3.org/2000/svg" d="m426.667969 426.667969h-128v-128h128zm-106.667969-21.335938h85.332031v-85.332031h-85.332031zm0 0" fill="currentColor" data-original="#000000"/></g></svg>